# AST/ASF file generated using VICON BodyLanguage
# -----------------------------------------------
:version 1.10
:name VICON
:units
  mass 1.0
  length 0.45
  angle deg
:documentation
   .ast/.asf automatically generated from VICON data using
   VICON BodyBuilder and BodyLanguage model FoxedUp or BRILLIANT.MOD
:root
   order TX TY TZ RX RY RZ
   axis XYZ
   position 0 0 0  
   orientation 0 0 0 
:bonedata
  begin
     id 1 
     name lhipjoint
     direction 0.702568 -0.596508 0.388042 
     length 2.56661 
     axis 0 0 0  XYZ
  end
  begin
     id 2 
     name lfemur
     direction 0.34202 -0.939693 0  
     length 6.58374  
     axis 0 0 20  XYZ
    dof rx ry rz
    limits (-160.0 20.0)
           (-70.0 70.0)
           (-60.0 70.0)
  end
  begin
     id 3 
     name ltibia
     direction 0.34202 -0.939693 0   
     length 6.62538   
     axis 0 0 20   XYZ
    dof rx
    limits (-10.0 170.0)
  end
  begin
     id 4 
     name lfoot
     direction 0.10455 -0.287249 0.952133   
     length 2.26699   
     axis -90 7.62852e-016 20   XYZ
    dof rx rz
    limits (-45.0 90.0)
           (-70.0 20.0)
  end
  begin
     id 5 
     name ltoes
     direction 1.53572e-011 -4.22322e-011 1   
     length 1.12949   
     axis -90 7.62852e-016 20   XYZ
    dof rx
    limits (-90.0 20.0)
  end
  begin
     id 6 
     name rhipjoint
     direction -0.728055 -0.574632 0.373811   
     length 2.66432  
     axis 0 0 0  XYZ 
  end
  begin
     id 7 
     name rfemur
     direction -0.34202 -0.939693 0   
     length 6.66732   
     axis 0 0 -20   XYZ
    dof rx ry rz
    limits (-160.0 20.0)
           (-70.0 70.0)
           (-70.0 60.0)
  end
  begin
     id 8 
     name rtibia
     direction -0.34202 -0.939693 0   
     length 6.59288   
     axis 0 0 -20   XYZ
    dof rx
    limits (-10.0 170.0)
 end
 begin
     id 9 
     name rfoot
     direction -0.119193 -0.327479 0.93731   
     length 2.38061  
     axis -90 -7.62852e-016 -20   XYZ
    dof rx rz
    limits (-45.0 90.0)
           (-20.0 70.0)
  end
  begin
     id 10 
     name rtoes
     direction -1.53547e-011 -4.21827e-011 1   
     length 1.17899   
     axis -90 -7.62852e-016 -20   XYZ
    dof rx
    limits (-90.0 20.0)
  end
  begin
     id 11 
     name lowerback
     direction -0.000416114 0.999912 -0.0132284   
     length 2.12109   
     axis 0 0 0   XYZ
    dof rx ry rz
    limits (-20.0 45.0)
           (-30.0 30.0)
           (-30.0 30.0)
  end
  begin
     id 12 
     name upperback
     direction -0.00136371 0.99809 0.0617608   
     length 2.10067   
     axis 0 0 0   XYZ
    dof rx ry rz
    limits (-20.0 45.0)
           (-30.0 30.0)
           (-30.0 30.0)
  end
  begin
     id 13 
     name thorax
     direction -3.43026e-005 0.997776 0.0666515   
     length 2.10618   
     axis 0 0 0   XYZ
    dof rx ry rz
    limits (-20.0 45.0)
           (-30.0 30.0)
           (-30.0 30.0)
  end
  begin
     id 14 
     name lowerneck
     direction 0.0398646 0.998418 0.0396592   
     length 1.83817   
     axis 0 0 0   XYZ
    dof rx ry rz
    limits (-20.0 45.0)
           (-30.0 30.0)
           (-30.0 30.0)
  end
  begin
     id 15 
     name upperneck
     direction -0.0367268 0.961527 -0.272244   
     length 1.81975   
     axis 0 0 0   XYZ
    dof rx ry rz
    limits (-20.0 45.0)
           (-30.0 30.0)
           (-30.0 30.0)
  end
  begin
     id 16
     name head
     direction -0.0182665 0.99536 -0.0944669  
     length 1.86026  
     axis 0 0 0   XYZ
    dof rx ry rz
    limits (-20.0 45.0)
           (-30.0 30.0)
           (-30.0 30.0)
  end
  begin
     id 17 
     name lclavicle
     direction 0.924239 0.361045 0.124212  
     length 3.26878  
     axis 0 0 0   XYZ
    dof ry rz
    limits (-20.0 10.0)
           (0.0 20.0)
  end
  begin
     id 18 
     name lhumerus
     direction 1 -4.48968e-011 -2.56583e-027   
     length 4.58538   
     axis 180 -30 -90   XYZ
    dof rx ry rz
    limits (-60.0 90.0)
           (-90.0 90.0)
           (-90.0 90.0)
  end
  begin
     id 19
     name lradius
     direction 1 -4.4898e-011 -5.50375e-027   
     length 2.68935   
     axis 180 -30 -90   XYZ
    dof rx
    limits (-10.0 170.0)
  end
  begin
     id 20
     name lwrist
     direction 1 -4.48939e-011 -1.48955e-026   
     length 1.34468   
     axis 9.0955e-015 90 90   XYZ
    dof ry
    limits (-180.0 0.0)
 end
  begin
     id 21 
     name lhand
     direction 1 -4.48936e-011 -2.97907e-026   
     length 0.585058   
     axis 1.90115e-014 90 90   XYZ
    dof rx rz
    limits (-90.0 90.0)
           (-45.0 45.0)
  end
  begin
     id 22 
     name lfingers
     direction 1 -4.49082e-011 -5.96235e-026   
     length 0.471689   
     axis 3.80223e-014 90 90   XYZ
    dof rx
    limits (0.0 90.0)
  end
  begin
     id 23
     name lthumb
     direction 0.707107 -6.3489e-011 0.707107   
     length 0.677253   
     axis -90 45 -3.84942e-014   XYZ
    dof rx rz
    limits (-45.0 45.0)
           (-45.0 45.0)
  end
  begin
     id 24 
     name rclavicle
     direction -0.923098 0.371783 0.0983239   
     length 3.19656  
     axis 0 0 0   XYZ 
    dof ry rz
    limits (-10.0 20.0)
           (-20.0 0.0)
  end
  begin
     id 25 
     name rhumerus
     direction -1 -4.48976e-011 -2.5492e-027  
     length 4.4745   
     axis 180 30 90   XYZ
    dof rx ry rz
    limits (-90.0 60.0)
           (-90.0 90.0)
           (-90.0 90.0)
  end
  begin
     id 26 
     name rradius
     direction -1 -4.48941e-011 -4.36555e-027   
     length 2.93896   
     axis 180 30 90   XYZ
    dof rx
    limits (-10.0 170.0)
  end
  begin
     id 27 
     name rwrist
     direction -1 -4.49044e-011 -1.49032e-026   
     length 1.46948   
     axis 9.0955e-015 -90 -90   XYZ
    dof ry
    limits (-180.0 0.0)
  end
  begin
     id 28
     name rhand
     direction -1 -4.48826e-011 -2.97749e-026   
     length 0.405092   
     axis 1.90115e-014 -90 -90   XYZ
    dof rx rz
    limits (-90.0 90.0)
           (-45.0 45.0)
  end
  begin
     id 29
     name rfingers
     direction -1 -4.49209e-011 -5.96602e-026   
     length 0.326596   
     axis 3.80223e-014 -90 -90   XYZ
    dof rx
    limits (0.0 90.0)
  end
  begin
     id 30
     name rthumb
     direction -0.707107 -6.34776e-011 0.707107   
     length 0.468928   
     axis -90 -45 3.84942e-014   XYZ
    dof rx rz
    limits (-45.0 45.0)
           (-45.0 45.0)
  end
:hierarchy
  begin
    root lhipjoint rhipjoint lowerback
    lhipjoint lfemur
    lfemur ltibia
    ltibia lfoot
    lfoot ltoes
    rhipjoint rfemur
    rfemur rtibia
    rtibia rfoot
    rfoot rtoes
    lowerback upperback
    upperback thorax
    thorax lowerneck lclavicle rclavicle
    lowerneck upperneck
    upperneck head
    lclavicle lhumerus
    lhumerus lradius
    lradius lwrist
    lwrist lhand lthumb
    lhand lfingers
    rclavicle rhumerus
    rhumerus rradius
    rradius rwrist
    rwrist rhand rthumb
    rhand rfingers
  end

#!OML:ASF H:\Punching\Project 1\Capture day 1\Session 1\female.ASF
:FULLY-SPECIFIED
:DEGREES
837
root 1.98726 15.8168 6.18024 12.6298 1.00702 -3.53915
lowerback -3.48617 1.16968 2.6232
upperback -6.36 1.57996 0.619633
thorax -4.5663 0.687806 -0.834695
lowerneck -12.0109 -1.6083 5.39678
upperneck 23.4401 -3.1686 -1.18704
head 9.24798 -1.13239 -1.67655
rclavicle 1.4533e-014 3.8763e-015
rhumerus -41.4506 35.7048 -111.079
rradius 34.8557
rwrist 4.19061
rhand -15.0021 -0.751007
rfingers 7.12502
rthumb 11.1627 -30.4341
lclavicle 1.4533e-014 3.8763e-015
lhumerus -51.4755 -30.4376 106.504
lradius 66.626
lwrist 2.79003
lhand -16.279 15.6466
lfingers 7.12502
lthumb 9.93096 45.3923
rfemur -19.1079 -2.92024 21.8775
rtibia 28.703
rfoot -18.2416 -11.8772
rtoes -6.15669
lfemur -20.2167 -10.5967 -14.6957
ltibia 26.4632
lfoot -17.0995 15.4394
ltoes 1.92627
838
root 1.98255 15.8168 6.16617 12.5454 0.445726 -3.65217
lowerback -3.31686 1.21598 2.42927
upperback -6.28678 1.64898 0.705509
thorax -4.58941 0.733291 -0.64101
lowerneck -12.1255 -1.95164 5.06467
upperneck 23.682 -3.70253 -0.741084
head 9.35248 -1.35654 -1.53316
rclavicle -1.5499e-015 9.74045e-015
rhumerus -40.9292 36.3219 -111.142
rradius 35.3576
rwrist 3.85341
rhand -14.9158 -0.644438
rfingers 7.12502
rthumb 11.2459 -30.323
lclavicle -1.5499e-015 9.74045e-015
lhumerus -50.8512 -30.8118 106.58
lradius 67.7579
lwrist 2.70793
lhand -16.8857 15.6774
lfingers 7.12502
lthumb 9.34564 45.4503
rfemur -19.6252 -3.4637 21.8574
rtibia 29.5765
rfoot -18.4124 -10.3751
rtoes -7.79522
lfemur -20.041 -10.4479 -14.6241
ltibia 26.46
lfoot -17.1565 15.8392
ltoes 1.98897
839
root 1.97771 15.8169 6.15069 12.4868 -0.082657 -3.75112
lowerback -3.16481 1.24318 2.25316
upperback -6.2231 1.69116 0.778723
thorax -4.61352 0.764076 -0.470163
lowerneck -12.2051 -2.32395 4.70394
upperneck 23.9186 -4.2772 -0.269669
head 9.4538 -1.59879 -1.38082
rclavicle -3.32964e-015 -8.54774e-015
rhumerus -40.3486 36.9301 -111.203
rradius 35.9228
rwrist 3.55164
rhand -14.8008 -0.506719
rfingers 7.12502
rthumb 11.3569 -30.1792
lclavicle -3.32964e-015 -8.54774e-015
lhumerus -50.183 -31.2438 106.669
lradius 68.9286
lwrist 2.6093
lhand -17.476 15.6981
lfingers 7.12502
lthumb 8.776 45.4956
rfemur -20.1972 -3.95206 21.7932
rtibia 30.4909
rfoot -18.5679 -8.83928
rtoes -9.44015
lfemur -19.9079 -10.3157 -14.5538
ltibia 26.4596
lfoot -17.2006 16.2187
ltoes 2.02976
840
root 1.97032 15.8185 6.133 12.5281 -0.667778 -3.83354
lowerback -3.09038 1.27943 2.0389
upperback -6.18717 1.74294 0.843864
thorax -4.62404 0.801178 -0.285086
lowerneck -12.265 -2.72084 4.3176
upperneck 24.1528 -4.88619 0.217331
head 9.55673 -1.8569 -1.2231
rclavicle 2.1711e-015 -1.15295e-014
rhumerus -39.7015 37.524 -111.249
rradius 36.5567
rwrist 3.30183
rhand -14.6702 -0.337846
rfingers 7.12502
rthumb 11.4828 -30.0034
lclavicle 2.1711e-015 -1.15295e-014
lhumerus -49.4643 -31.7372 106.771
lradius 70.1394
lwrist 2.51152
lhand -18.0418 15.725
lfingers 7.12502
lthumb 8.22997 45.5447
rfemur -20.9225 -4.29903 21.6818
rtibia 31.4393
rfoot -18.6841 -7.29286
rtoes -11.0417
lfemur -19.8704 -10.1307 -14.483
ltibia 26.439
lfoot -17.2279 16.5984
ltoes 2.07124
841
root 1.96078 15.8215 6.1132 12.6527 -1.22835 -3.86672
lowerback -3.07845 1.29801 1.77997
upperback -6.17948 1.76908 0.891287
thorax -4.63061 0.826975 -0.0920514
lowerneck -12.2985 -3.13956 3.91074
upperneck 24.3853 -5.5244 0.710571
head 9.66074 -2.12918 -1.06345
rclavicle 4.55031e-015 -5.66536e-015
rhumerus -38.9935 38.0858 -111.278
rradius 37.2565
rwrist 3.0967
rhand -14.4969 -0.157824
rfingers 7.12502
rthumb 11.65 -29.8139
lclavicle 4.55031e-015 -5.66536e-015
lhumerus -48.7101 -32.3016 106.89
lradius 71.396
lwrist 2.43829
lhand -18.5974 15.7602
lfingers 7.12502
lthumb 7.69375 45.6002
rfemur -21.7644 -4.56683 21.4998
rtibia 32.4089
rfoot -18.7638 -5.78473
rtoes -12.5622
lfemur -19.9216 -9.93707 -14.4394
ltibia 26.3782
lfoot -17.2107 16.9408
ltoes 2.09188
842
root 1.94906 15.8252 6.09275 12.8173 -1.7822 -3.84562
lowerback -3.11038 1.30385 1.46932
upperback -6.18338 1.77671 0.921749
thorax -4.62607 0.845516 0.113439
lowerneck -12.2916 -3.5733 3.48284
upperneck 24.6032 -6.18041 1.20695
head 9.75937 -2.41138 -0.901016
rclavicle -1.14705e-014 -6.55989e-015
rhumerus -38.2259 38.6049 -111.282
rradius 38.0183
rwrist 2.93
rhand -14.3367 0.0702234
rfingers 7.12502
rthumb 11.8045 -29.5771
lclavicle -1.14705e-014 -6.55989e-015
lhumerus -47.9185 -32.9528 107.035
lradius 72.6881
lwrist 2.42214
lhand -19.1709 15.7954
lfingers 7.12502
lthumb 7.14019 45.655
rfemur -22.6674 -4.75481 21.2375
rtibia 33.3822
rfoot -18.8396 -4.32173
rtoes -13.6441
lfemur -19.9946 -9.72198 -14.442
ltibia 26.2598
lfoot -17.1552 17.2471
ltoes 2.10139
843
root 1.9361 15.8287 6.07433 12.9551 -2.35814 -3.7804
lowerback -3.14742 1.30709 1.12738
upperback -6.17618 1.78017 0.935748
thorax -4.60765 0.863035 0.319735
lowerneck -12.2621 -4.01555 3.0376
upperneck 24.8236 -6.84609 1.69877
head 9.86223 -2.69973 -0.738844
rclavicle -1.19302e-014 9.93923e-016
rhumerus -37.4163 39.0831 -111.276
rradius 38.8459
rwrist 2.72943
rhand -14.2058 0.320303
rfingers 7.12502
rthumb 11.9307 -29.3197
lclavicle -1.19302e-014 9.93923e-016
lhumerus -47.0936 -33.6844 107.199
lradius 74.0119
lwrist 2.45259
lhand -19.7558 15.8175
lfingers 7.12502
lthumb 6.57557 45.6954
rfemur -23.5414 -4.86676 20.8948
rtibia 34.332
rfoot -18.8869 -2.967
rtoes -14.3938
lfemur -19.9901 -9.49371 -14.5008
ltibia 26.0734
lfoot -17.0831 17.5484
ltoes 2.10884
844
root 1.92233 15.832 6.05798 13.0498 -2.92199 -3.6592
lowerback -3.17169 1.29681 0.757736
upperback -6.15801 1.76526 0.930698
thorax -4.58535 0.872048 0.521863
lowerneck -12.1969 -4.46074 2.57164
upperneck 25.0406 -7.51252 2.18701
head 9.96522 -2.99084 -0.574536
rclavicle -2.45142e-014 -1.38155e-014
rhumerus -36.5715 39.4971 -111.259
rradius 39.7348
rwrist 2.4714
rhand -14.1376 0.611349
rfingers 7.12502
rthumb 11.9964 -29.0249
lclavicle -2.45142e-014 -1.38155e-014
lhumerus -46.2408 -34.4862 107.377
lradius 75.3524
lwrist 2.49402
lhand -20.3574 15.8078
lfingers 7.12502
lthumb 5.99479 45.703
rfemur -24.3562 -4.94485 20.4609
rtibia 35.228
rfoot -18.8933 -1.82635
rtoes -14.696
lfemur -19.8976 -9.2813 -14.6267
ltibia 25.8116
lfoot -16.9838 17.8398
ltoes 2.11141
845
root 1.90823 15.8351 6.04489 13.0759 -3.48083 -3.5048
lowerback -3.16694 1.27785 0.389819
upperback -6.1225 1.73866 0.912037
thorax -4.56073 0.874607 0.70865
lowerneck -12.0984 -4.90354 2.0948
upperneck 25.26 -8.17292 2.66217
head 10.0702 -3.28176 -0.412259
rclavicle 2.01114e-015 -3.77691e-015
rhumerus -35.6992 39.8286 -111.232
rradius 40.6812
rwrist 2.15628
rhand -14.1297 0.932302
rfingers 7.12502
rthumb 12.0041 -28.7035
lclavicle 2.01114e-015 -3.77691e-015
lhumerus -45.3621 -35.33 107.56
lradius 76.6857
lwrist 2.50149
lhand -20.9779 15.7186
lfingers 7.12502
lthumb 5.39565 45.6299
rfemur -25.0682 -4.99861 19.9575
rtibia 36.0358
rfoot -18.8325 -0.997487
rtoes -14.5732
lfemur -19.6793 -9.09485 -14.8005
ltibia 25.4702
lfoot -16.8668 18.1405
ltoes 2.12174
846
root 1.89444 15.8381 6.03527 13.0214 -4.00429 -3.32406
lowerback -3.11637 1.24235 0.0474347
upperback -6.07039 1.68977 0.881341
thorax -4.54302 0.86432 0.868147
lowerneck -11.964 -5.33876 1.61251
upperneck 25.4829 -8.81999 3.1182
head 10.1762 -3.56954 -0.253928
rclavicle -3.69615e-016 2.76311e-014
rhumerus -34.805 40.0479 -111.191
rradius 41.6848
rwrist 1.79001
rhand -14.166 1.27074
rfingers 7.12502
rthumb 11.969 -28.3671
lclavicle -3.69615e-016 2.76311e-014
lhumerus -44.4648 -36.1914 107.742
lradius 77.9984
lwrist 2.4389
lhand -21.6098 15.5469
lfingers 7.12502
lthumb 4.78554 45.4728
rfemur -25.6471 -5.06594 19.3942
rtibia 36.7239
rfoot -18.6645 -0.568528
rtoes -14.0794
lfemur -19.3279 -8.95934 -15.0122
ltibia 25.0475
lfoot -16.7289 18.4471
ltoes 2.13992
847
root 1.87933 15.8418 6.02853 12.919 -4.51111 -3.12944
lowerback -3.04179 1.19641 -0.283723
upperback -6.0149 1.6266 0.846211
thorax -4.53433 0.846102 1.01655
lowerneck -11.7942 -5.76214 1.13552
upperneck 25.7112 -9.44751 3.54313
head 10.2825 -3.85187 -0.104549
rclavicle -4.05179e-015 -1.13307e-014
rhumerus -33.9059 40.146 -111.145
rradius 42.745
rwrist 1.41304
rhand -14.2494 1.61491
rfingers 7.12502
rthumb 11.8886 -28.0276
lclavicle -4.05179e-015 -1.13307e-014
lhumerus -43.5567 -37.0467 107.921
lradius 79.2837
lwrist 2.28936
lhand -22.2419 15.303
lfingers 7.12502
lthumb 4.17522 45.2419
rfemur -26.1229 -5.11769 18.7895
rtibia 37.2613
rfoot -18.3413 -0.581922
rtoes -13.2765
lfemur -18.8781 -8.83265 -15.2421
ltibia 24.5469
lfoot -16.5671 18.7444
ltoes 2.15918
848
root 1.86347 15.8461 6.02493 12.7665 -5.00444 -2.9392
lowerback -2.93899 1.14518 -0.578697
upperback -5.95369 1.55592 0.810425
thorax -4.53395 0.822351 1.14376
lowerneck -11.6028 -6.17036 0.676394
upperneck 25.9466 -10.0514 3.92618
head 10.3903 -4.12673 0.030276
rclavicle -6.15145e-015 2.20651e-014
rhumerus -33.001 40.1026 -111.08
rradius 43.869
rwrist 1.02315
rhand -14.3519 2.00303
rfingers 7.12502
rthumb 11.7898 -27.6451
lclavicle -6.15145e-015 2.20651e-014
lhumerus -42.6415 -37.897 108.096
lradius 80.533
lwrist 2.06441
lhand -22.8798 14.987
lfingers 7.12502
lthumb 3.55922 44.9371
rfemur -26.4832 -5.1504 18.1588
rtibia 37.6225
rfoot -17.8228 -1.01069
rtoes -12.1762
lfemur -18.3265 -8.73089 -15.4709
ltibia 23.9732
lfoot -16.3903 19.0519
ltoes 2.19669
